<?xml version="1.0" standalone="no"?>
<!DOCTYPE svg>
<svg version="1.0" xmlns="http://www.w3.org/2000/svg"
 width="512.000000pt" height="512.000000pt" viewBox="0 0 512.000000 512.000000"
 preserveAspectRatio="xMidYMid meet">

<g transform="translate(0.000000,512.000000) scale(0.100000,-0.100000)"
fill="#000000" stroke="none">
<path d="M1526 5110 c-39 -12 -75 -47 -97 -95 -18 -38 -19 -118 -19 -2087 l0
-2046 -67 -7 c-494 -45 -825 -145 -961 -289 -95 -101 -92 -193 9 -295 114
-113 350 -201 681 -253 127 -20 182 -22 488 -23 373 0 474 9 710 61 348 78
544 194 575 341 11 56 -14 113 -80 178 -150 151 -452 241 -937 280 l-78 7 0
1149 0 1149 490 0 490 0 0 -198 c0 -242 9 -284 79 -354 83 -82 34 -79 1032
-76 824 3 876 4 902 21 16 10 37 32 47 50 40 66 34 84 -154 432 -96 178 -177
333 -181 344 -5 16 38 106 171 354 155 290 177 338 177 378 1 54 -20 91 -66
119 -31 19 -54 20 -549 20 l-518 0 0 198 c0 227 -9 274 -65 339 -19 23 -54 51
-78 62 -43 21 -52 21 -909 21 l-865 0 -6 54 c-7 67 -27 107 -70 140 -38 29
-106 41 -151 26z m93 -85 c16 -8 31 -22 35 -30 3 -9 6 -1027 6 -2261 l0 -2244
-32 0 c-18 0 -57 -3 -85 -6 l-53 -7 0 2256 0 2255 31 26 c35 30 58 32 98 11z
m1771 -218 c100 -2 140 -24 171 -91 18 -39 19 -80 19 -748 l0 -708 -910 0
-910 0 0 778 0 777 773 -2 c424 -2 810 -4 857 -6z m1320 -637 c11 -11 20 -26
20 -32 0 -7 -80 -161 -177 -343 -160 -300 -176 -335 -176 -380 -1 -46 14 -77
172 -374 96 -178 174 -335 174 -349 0 -13 -8 -31 -17 -40 -15 -16 -90 -17
-847 -21 -794 -3 -944 0 -937 19 2 5 167 127 368 271 201 144 368 267 372 273
4 6 8 233 8 504 l0 492 510 0 c497 0 511 -1 530 -20z m-1236 -1009 c-5 -4
-148 -108 -318 -230 -230 -166 -311 -220 -320 -211 -7 7 -12 84 -14 230 l-3
220 332 0 c185 0 329 -4 323 -9z m-2064 -2549 c0 -133 4 -192 12 -200 13 -13
271 -18 302 -6 14 5 16 33 16 201 l0 196 93 -7 c241 -18 510 -72 673 -135 97
-37 201 -105 232 -151 111 -165 -197 -334 -743 -406 -184 -25 -648 -25 -830
-1 -359 48 -608 132 -723 242 -46 46 -52 56 -52 93 0 156 391 309 897 351 54
5 104 9 111 10 9 1 12 -43 12 -187z"/>
</g>
</svg>
