<svg width="15" height="15" viewBox="0 0 15 15" fill="none" xmlns="http://www.w3.org/2000/svg">
<path d="M10.6154 1H4.20513C2.43498 1 1 2.42063 1 4.17308V10.5192C1 12.2717 2.43498 13.6923 4.20513 13.6923H10.6154C12.3855 13.6923 13.8205 12.2717 13.8205 10.5192V4.17308C13.8205 2.42063 12.3855 1 10.6154 1Z" stroke="white" stroke-linecap="round" stroke-linejoin="round"/>
<path d="M9.9734 6.94663C10.0525 7.47479 9.96138 8.01419 9.71299 8.48812C9.46459 8.96205 9.07157 9.34637 8.58982 9.58642C8.10808 9.82647 7.56215 9.91003 7.02967 9.8252C6.4972 9.74038 6.0053 9.49149 5.62394 9.11395C5.24258 8.7364 4.99118 8.24942 4.90549 7.72227C4.81981 7.19512 4.90421 6.65464 5.14668 6.17771C5.38916 5.70079 5.77736 5.3117 6.25608 5.06578C6.7348 4.81987 7.27965 4.72966 7.81314 4.80798C8.35732 4.88787 8.86112 5.13891 9.25012 5.52402C9.63913 5.90913 9.8927 6.40789 9.9734 6.94663Z" stroke="white" stroke-linecap="round" stroke-linejoin="round"/>
<path d="M10.9353 3.85596H10.9419" stroke="white" stroke-linecap="round" stroke-linejoin="round"/>
</svg>
