<svg width="46" height="46" viewBox="0 0 46 46" fill="none" xmlns="http://www.w3.org/2000/svg">
<path opacity="0.2" d="M45.3088 28.5643C42.2368 40.8858 29.7565 48.3838 17.4335 45.3119C5.11627 42.2399 -2.38245 29.7596 0.690203 17.4387C3.7607 5.11577 16.2404 -2.38367 28.5597 0.688272C40.882 3.76021 48.38 16.242 45.308 28.5643H45.3088Z" fill="#F7931A"/>
<path fill-rule="evenodd" clip-rule="evenodd" d="M29.927 20.3279C30.2371 18.2518 28.6563 17.1357 26.4949 16.3911L27.196 13.5787L25.4836 13.1521L24.801 15.8904C24.3514 15.7782 23.8892 15.6724 23.4299 15.5676L24.1174 12.8113L22.4064 12.3846L21.7048 15.1961C21.3323 15.1112 20.9666 15.0273 20.6116 14.9391L20.6136 14.9303L18.2526 14.3408L17.7972 16.1693C17.7972 16.1693 19.0674 16.4604 19.0406 16.4784C19.7339 16.6515 19.8597 17.1103 19.8383 17.4741L19.0396 20.678C19.0874 20.6902 19.1493 20.7078 19.2176 20.7351L19.0372 20.6902L17.9172 25.1785C17.8323 25.3891 17.6173 25.7051 17.1326 25.5851C17.1497 25.61 15.8883 25.2745 15.8883 25.2745L15.0385 27.2346L17.2667 27.79C17.5183 27.853 17.7668 27.9179 18.0125 27.982L18.0126 27.982C18.1717 28.0235 18.3297 28.0647 18.4867 28.105L17.7782 30.9501L19.4882 31.3767L20.1903 28.5624C20.6569 28.6891 21.1104 28.8061 21.5541 28.9163L20.8549 31.7175L22.5668 32.1442L23.2753 29.3049C26.1945 29.8574 28.3901 29.6346 29.3131 26.9947C30.0577 24.8689 29.2766 23.6426 27.7406 22.8424C28.8592 22.5835 29.7017 21.8478 29.9265 20.3279H29.927ZM26.0151 25.8128C25.5291 27.764 22.4743 26.9567 21.0779 26.5876L21.0779 26.5876C20.9528 26.5546 20.8411 26.525 20.7457 26.5013L21.6858 22.7327C21.8024 22.7618 21.9449 22.7938 22.1063 22.83C23.551 23.1542 26.5116 23.8186 26.0156 25.8128H26.0151ZM22.3967 21.0813C23.5618 21.3921 26.1017 22.0697 26.5441 20.2972C26.9964 18.4839 24.5267 17.9374 23.3206 17.6705C23.185 17.6404 23.0653 17.614 22.9676 17.5896L22.1153 21.0076C22.196 21.0277 22.2906 21.053 22.3967 21.0813Z" fill="#F7931A"/>
</svg>
