<svg width="26" height="26" viewBox="0 0 26 26" fill="none" xmlns="http://www.w3.org/2000/svg">
<path fill-rule="evenodd" clip-rule="evenodd" d="M13 25.8C16.3948 25.8 19.6505 24.4514 22.051 22.051C24.4514 19.6505 25.8 16.3948 25.8 13C25.8 9.60523 24.4514 6.3495 22.051 3.94903C19.6505 1.54857 16.3948 0.200001 13 0.200001C9.60524 0.200001 6.34951 1.54857 3.94905 3.94903C1.54858 6.3495 0.200012 9.60523 0.200012 13C0.200012 16.3948 1.54858 19.6505 3.94905 22.051C6.34951 24.4514 9.60524 25.8 13 25.8ZM18.9312 10.9312C19.2227 10.6294 19.3839 10.2253 19.3803 9.80576C19.3766 9.38624 19.2084 8.98494 18.9117 8.68829C18.6151 8.39164 18.2138 8.22337 17.7943 8.21972C17.3747 8.21608 16.9706 8.37735 16.6688 8.6688L11.4 13.9376L9.33121 11.8688C9.02945 11.5773 8.62528 11.4161 8.20577 11.4197C7.78625 11.4234 7.38496 11.5916 7.0883 11.8883C6.79165 12.1849 6.62338 12.5862 6.61973 13.0058C6.61609 13.4253 6.77736 13.8294 7.06881 14.1312L10.2688 17.3312C10.5689 17.6312 10.9757 17.7997 11.4 17.7997C11.8243 17.7997 12.2312 17.6312 12.5312 17.3312L18.9312 10.9312Z" fill="white"/>
</svg>
