<svg width="17" height="17" viewBox="0 0 17 17" fill="none" xmlns="http://www.w3.org/2000/svg">
<path fill-rule="evenodd" clip-rule="evenodd" d="M8.88714 16.9001C10.9849 16.9001 12.9968 16.0151 14.4802 14.4398C15.9635 12.8645 16.7969 10.7279 16.7969 8.5001C16.7969 6.27228 15.9635 4.13571 14.4802 2.5604C12.9968 0.985095 10.9849 0.100098 8.88714 0.100098C6.78935 0.100098 4.77748 0.985095 3.29412 2.5604C1.81076 4.13571 0.977417 6.27228 0.977417 8.5001C0.977417 10.7279 1.81076 12.8645 3.29412 14.4398C4.77748 16.0151 6.78935 16.9001 8.88714 16.9001ZM12.5523 7.14245C12.7324 6.94441 12.8321 6.67918 12.8298 6.40388C12.8276 6.12857 12.7236 5.86522 12.5403 5.67054C12.357 5.47586 12.109 5.36543 11.8497 5.36304C11.5905 5.36065 11.3407 5.46648 11.1543 5.65775L7.89843 9.1154L6.62002 7.75775C6.43354 7.56648 6.18379 7.46065 5.92455 7.46304C5.66532 7.46543 5.41733 7.57586 5.23402 7.77054C5.0507 7.96522 4.94672 8.22857 4.94447 8.50388C4.94221 8.77918 5.04187 9.04441 5.22197 9.24245L7.19941 11.3424C7.38482 11.5393 7.63626 11.6499 7.89843 11.6499C8.1606 11.6499 8.41204 11.5393 8.59745 11.3424L12.5523 7.14245Z" fill="#F8F8F8"/>
</svg>
