<svg width="17" height="17" viewBox="0 0 17 17" fill="none" xmlns="http://www.w3.org/2000/svg">
<path fill-rule="evenodd" clip-rule="evenodd" d="M8.5 16.9001C10.7278 16.9001 12.8644 16.0151 14.4397 14.4398C16.015 12.8645 16.9 10.7279 16.9 8.5001C16.9 6.27228 16.015 4.13571 14.4397 2.5604C12.8644 0.985095 10.7278 0.100098 8.5 0.100098C6.27218 0.100098 4.13561 0.985095 2.5603 2.5604C0.984996 4.13571 0.0999985 6.27228 0.0999985 8.5001C0.0999985 10.7279 0.984996 12.8645 2.5603 14.4398C4.13561 16.0151 6.27218 16.9001 8.5 16.9001ZM12.3923 7.14245C12.5836 6.94441 12.6894 6.67918 12.6871 6.40388C12.6847 6.12857 12.5742 5.86522 12.3796 5.67054C12.1849 5.47586 11.9215 5.36543 11.6462 5.36304C11.3709 5.36065 11.1057 5.46648 10.9076 5.65775L7.45 9.1154L6.09235 7.75775C5.89432 7.56648 5.62908 7.46065 5.35378 7.46304C5.07847 7.46543 4.81512 7.57586 4.62044 7.77054C4.42576 7.96522 4.31533 8.22857 4.31294 8.50388C4.31055 8.77918 4.41638 9.04441 4.60765 9.24245L6.70765 11.3424C6.90455 11.5393 7.17158 11.6499 7.45 11.6499C7.72842 11.6499 7.99544 11.5393 8.19235 11.3424L12.3923 7.14245Z" fill="url(#paint0_linear_26_103)"/>
<defs>
<linearGradient id="paint0_linear_26_103" x1="1.65504" y1="3.54176" x2="22.8903" y2="11.2015" gradientUnits="userSpaceOnUse">
<stop offset="0.0417277" stop-color="#FF814A"/>
<stop offset="0.9999" stop-color="#FFA825"/>
<stop offset="1" stop-color="#F1F37C"/>
</linearGradient>
</defs>
</svg>
