<svg width="34" height="34" viewBox="0 0 34 34" fill="none" xmlns="http://www.w3.org/2000/svg">
<path fill-rule="evenodd" clip-rule="evenodd" d="M17 33.7999C21.4556 33.7999 25.7288 32.03 28.8794 28.8793C32.03 25.7287 33.8 21.4556 33.8 17C33.8 12.5443 32.03 8.27117 28.8794 5.12056C25.7288 1.96995 21.4556 0.199951 17 0.199951C12.5444 0.199951 8.27123 1.96995 5.12062 5.12056C1.97001 8.27117 0.200012 12.5443 0.200012 17C0.200012 21.4556 1.97001 25.7287 5.12062 28.8793C8.27123 32.03 12.5444 33.7999 17 33.7999ZM24.7847 14.2846C25.1672 13.8886 25.3789 13.3581 25.3741 12.8075C25.3693 12.2569 25.1485 11.7302 24.7591 11.3408C24.3698 10.9515 23.8431 10.7306 23.2925 10.7258C22.7418 10.7211 22.2114 10.9327 21.8153 11.3153L14.9 18.2306L12.1847 15.5153C11.7886 15.1327 11.2582 14.9211 10.7076 14.9258C10.157 14.9306 9.63025 15.1515 9.24089 15.5408C8.85154 15.9302 8.63068 16.4569 8.6259 17.0075C8.62111 17.5581 8.83278 18.0886 9.21531 18.4846L13.4153 22.6847C13.8091 23.0783 14.3432 23.2995 14.9 23.2995C15.4569 23.2995 15.9909 23.0783 16.3847 22.6847L24.7847 14.2846Z" fill="#F8F8F8"/>
</svg>
