<svg width="46" height="46" viewBox="0 0 46 46" fill="none" xmlns="http://www.w3.org/2000/svg">
<path opacity="0.2" d="M45.8752 23.0004C45.8752 35.6361 35.6322 45.8794 22.9967 45.8794C10.361 45.8794 0.117845 35.6361 0.117845 23.0004C0.117845 10.3649 10.361 0.12175 22.9967 0.12175C35.6321 0.12175 45.8752 10.3649 45.8752 23.0004Z" fill="#505050"/>
<g opacity="0.8">
<path d="M22.9235 12.3846L22.7822 12.8649V26.8026L22.9235 26.9436L29.3932 23.1194L22.9235 12.3846Z" fill="white"/>
<path d="M22.9235 12.3846L16.4538 23.1194L22.9235 26.9437V20.1788V12.3846Z" fill="white"/>
<path d="M22.9235 29.0486L22.8439 29.1457V34.1106L22.9235 34.3431L29.3971 25.2263L22.9235 29.0486Z" fill="white"/>
<path d="M22.9235 34.3432V29.0486L16.4538 25.2263L22.9235 34.3432Z" fill="white"/>
<path d="M22.9235 26.9436L29.3931 23.1195L22.9235 20.1788V26.9436Z" fill="white"/>
<path d="M16.4538 23.1194L22.9234 26.9436V20.1788L16.4538 23.1194Z" fill="white"/>
</g>
</svg>
