<?xml version="1.0" standalone="no"?>
<!DOCTYPE svg>
<svg version="1.0" xmlns="http://www.w3.org/2000/svg"
 width="981.000000pt" height="654.000000pt" viewBox="0 0 981.000000 654.000000"
 preserveAspectRatio="xMidYMid meet">

<g transform="translate(0.000000,654.000000) scale(0.100000,-0.100000)"
fill="#fff" stroke="none">
<path d="M2570 4115 c-1278 -1329 -2343 -2441 -2367 -2473 -65 -84 -139 -243
-168 -357 -143 -559 186 -1124 732 -1257 123 -29 304 -29 427 1 181 44 341
135 476 271 41 42 784 813 1650 1713 866 900 1577 1637 1580 1637 3 0 712
-734 1575 -1631 862 -896 1605 -1667 1649 -1712 198 -201 427 -300 696 -300
201 0 359 47 524 157 429 285 578 853 346 1321 -27 55 -69 127 -94 159 -47 62
-4684 4886 -4696 4886 -4 0 -1052 -1087 -2330 -2415z"/>
</g>
</svg>
