<?xml version="1.0" standalone="no"?>
<!DOCTYPE svg PUBLIC "-//W3C//DTD SVG 20010904//EN"
 "http://www.w3.org/TR/2001/REC-SVG-20010904/DTD/svg10.dtd">
<svg version="1.0" xmlns="http://www.w3.org/2000/svg" viewBox="0 0 512.000000 497.000000"
 preserveAspectRatio="xMidYMid meet">

<g transform="translate(0.000000,497.000000) scale(0.100000,-0.100000)"
fill="#fff" stroke="none">
<path d="M481 4609 c-181 -30 -351 -198 -390 -387 -50 -239 60 -473 273 -578
l80 -39 2105 0 2106 0 79 38 c179 85 286 258 286 462 0 148 -42 253 -144 362
-69 75 -167 127 -266 143 -82 13 -4051 12 -4129 -1z"/>
<path d="M456 2994 c-176 -43 -323 -196 -366 -383 -18 -76 -8 -221 20 -294 50
-133 161 -248 287 -299 l58 -23 2065 -3 c1554 -2 2079 0 2120 9 316 67 478
450 319 750 -38 71 -136 167 -207 203 -116 59 6 56 -2207 55 -1718 -1 -2039
-3 -2089 -15z"/>
<path d="M470 1389 c-169 -33 -332 -193 -375 -370 -23 -93 -17 -230 15 -312
50 -133 161 -248 287 -299 l58 -23 2065 -3 c1449 -2 2081 1 2117 8 222 46 383
255 383 497 0 148 -49 270 -148 369 -62 62 -169 119 -251 134 -68 13 -4086 12
-4151 -1z"/>
</g>
</svg>
