<svg width="16" height="13" viewBox="0 0 16 13" fill="none" xmlns="http://www.w3.org/2000/svg">
<path d="M14.641 0.968051C14.0272 1.39672 13.3475 1.72458 12.6282 1.93901C12.2421 1.49955 11.7291 1.18807 11.1583 1.0467C10.5876 0.905326 9.98685 0.940887 9.43722 1.14857C8.8876 1.35625 8.41566 1.72604 8.08524 2.20791C7.75481 2.68978 7.58185 3.2605 7.58973 3.84286V4.47747C6.46322 4.50639 5.34696 4.25905 4.34038 3.75747C3.3338 3.25589 2.46814 2.51565 1.8205 1.60267C1.8205 1.60267 -0.743599 7.31421 5.02563 9.85267C3.70546 10.7398 2.13278 11.1847 0.538452 11.1219C6.30768 14.295 13.359 11.1219 13.359 3.82382C13.3584 3.64705 13.3412 3.47072 13.3077 3.29709C13.9619 2.65835 14.4236 1.85189 14.641 0.968051V0.968051Z" stroke="white" stroke-linecap="round" stroke-linejoin="round"/>
</svg>
