<svg width="142" height="58" viewBox="0 0 142 58" fill="none" xmlns="http://www.w3.org/2000/svg">
<g filter="url(#filter0_d_1_617)">
<path d="M78.528 39.536C78.336 39.696 77.976 39.912 77.448 40.184C76.936 40.456 76.304 40.696 75.552 40.904C74.8 41.112 73.968 41.208 73.056 41.192C71.664 41.16 70.416 40.912 69.312 40.448C68.224 39.968 67.296 39.32 66.528 38.504C65.776 37.688 65.2 36.752 64.8 35.696C64.4 34.64 64.2 33.512 64.2 32.312C64.2 30.52 64.56 28.936 65.28 27.56C66 26.184 67 25.104 68.28 24.32C69.576 23.536 71.08 23.144 72.792 23.144C73.976 23.144 75.024 23.304 75.936 23.624C76.848 23.944 77.592 24.288 78.168 24.656L76.8 27.944C76.4 27.64 75.864 27.328 75.192 27.008C74.536 26.672 73.776 26.504 72.912 26.504C72.016 26.504 71.176 26.752 70.392 27.248C69.624 27.744 69 28.416 68.52 29.264C68.056 30.096 67.824 31.048 67.824 32.12C67.824 33.256 68.04 34.256 68.472 35.12C68.904 35.968 69.52 36.632 70.32 37.112C71.12 37.592 72.056 37.832 73.128 37.832C74.072 37.832 74.88 37.68 75.552 37.376C76.224 37.072 76.736 36.752 77.088 36.416L78.528 39.536ZM80.6464 35.624C80.6464 34.552 80.8944 33.592 81.3904 32.744C81.9024 31.896 82.6144 31.232 83.5264 30.752C84.4384 30.256 85.4864 30.008 86.6704 30.008C87.8704 30.008 88.9104 30.256 89.7904 30.752C90.6704 31.232 91.3424 31.896 91.8064 32.744C92.2864 33.592 92.5264 34.552 92.5264 35.624C92.5264 36.696 92.2864 37.664 91.8064 38.528C91.3424 39.376 90.6704 40.048 89.7904 40.544C88.9104 41.04 87.8544 41.288 86.6224 41.288C85.4704 41.288 84.4384 41.064 83.5264 40.616C82.6304 40.168 81.9264 39.52 81.4144 38.672C80.9024 37.824 80.6464 36.808 80.6464 35.624ZM84.0304 35.648C84.0304 36.48 84.2704 37.176 84.7504 37.736C85.2304 38.28 85.8384 38.552 86.5744 38.552C87.3584 38.552 87.9824 38.28 88.4464 37.736C88.9104 37.176 89.1424 36.48 89.1424 35.648C89.1424 34.816 88.9104 34.128 88.4464 33.584C87.9824 33.024 87.3584 32.744 86.5744 32.744C85.8384 32.744 85.2304 33.024 84.7504 33.584C84.2704 34.128 84.0304 34.816 84.0304 35.648ZM96.1813 41V33.44H94.4053V30.464H96.1813V26.816C96.1813 25.44 96.5733 24.32 97.3573 23.456C98.1573 22.576 99.3093 22.136 100.813 22.136C101.261 22.136 101.757 22.208 102.301 22.352C102.861 22.48 103.349 22.696 103.765 23L102.349 25.424C102.189 25.216 101.997 25.08 101.773 25.016C101.565 24.936 101.365 24.896 101.173 24.896C100.693 24.896 100.301 25.056 99.9973 25.376C99.6933 25.696 99.5413 26.208 99.5413 26.912V30.464H102.709V33.44H99.5413V41H96.1813ZM103.933 41V33.44H102.157V30.464H103.933V26.816C103.933 25.44 104.325 24.32 105.109 23.456C105.909 22.576 107.061 22.136 108.565 22.136C109.013 22.136 109.509 22.208 110.053 22.352C110.613 22.48 111.101 22.696 111.517 23L110.101 25.424C109.941 25.216 109.749 25.08 109.525 25.016C109.317 24.936 109.117 24.896 108.925 24.896C108.445 24.896 108.053 25.056 107.749 25.376C107.445 25.696 107.293 26.208 107.293 26.912V30.464H110.461V33.44H107.293V41H103.933ZM118.286 41.288C117.006 41.288 115.918 41.048 115.022 40.568C114.142 40.088 113.47 39.424 113.006 38.576C112.542 37.728 112.31 36.752 112.31 35.648C112.31 34.592 112.582 33.64 113.126 32.792C113.67 31.944 114.398 31.272 115.31 30.776C116.222 30.264 117.238 30.008 118.358 30.008C119.862 30.008 121.094 30.448 122.054 31.328C123.03 32.192 123.662 33.448 123.95 35.096L116.27 37.544C116.782 38.136 117.478 38.432 118.358 38.432C118.726 38.432 119.078 38.368 119.414 38.24C119.766 38.112 120.11 37.944 120.446 37.736L121.934 40.232C121.374 40.552 120.766 40.808 120.11 41C119.47 41.192 118.862 41.288 118.286 41.288ZM115.622 35.456C115.622 35.536 115.622 35.608 115.622 35.672L120.23 34.112C120.086 33.712 119.854 33.368 119.534 33.08C119.214 32.776 118.734 32.624 118.094 32.624C117.342 32.624 116.742 32.88 116.294 33.392C115.846 33.904 115.622 34.592 115.622 35.456ZM131.552 41.288C130.272 41.288 129.184 41.048 128.288 40.568C127.408 40.088 126.736 39.424 126.272 38.576C125.808 37.728 125.576 36.752 125.576 35.648C125.576 34.592 125.848 33.64 126.392 32.792C126.936 31.944 127.664 31.272 128.576 30.776C129.488 30.264 130.504 30.008 131.624 30.008C133.128 30.008 134.36 30.448 135.32 31.328C136.296 32.192 136.928 33.448 137.216 35.096L129.536 37.544C130.048 38.136 130.744 38.432 131.624 38.432C131.992 38.432 132.344 38.368 132.68 38.24C133.032 38.112 133.376 37.944 133.712 37.736L135.2 40.232C134.64 40.552 134.032 40.808 133.376 41C132.736 41.192 132.128 41.288 131.552 41.288ZM128.888 35.456C128.888 35.536 128.888 35.608 128.888 35.672L133.496 34.112C133.352 33.712 133.12 33.368 132.8 33.08C132.48 32.776 132 32.624 131.36 32.624C130.608 32.624 130.008 32.88 129.56 33.392C129.112 33.904 128.888 34.592 128.888 35.456Z" fill="#FF4B32"/>
<g clip-path="url(#clip0_1_617)">
<path d="M50.8497 41.8508H43.7774C43.3728 41.8508 43.045 42.1787 43.045 42.5832C43.045 42.9877 43.3728 43.3156 43.7774 43.3156H50.1173V43.7288L39.4526 45.7541H18.0748L7.41016 43.7288V43.3156H10.3223C10.3234 43.3156 10.3246 43.3158 10.3257 43.3158C10.3266 43.3158 10.3275 43.3156 10.3284 43.3156H12.9673C12.9682 43.3156 12.969 43.3158 12.9698 43.3158C12.9712 43.3158 12.9727 43.3156 12.974 43.3156H21.755C21.7555 43.3156 21.756 43.3157 21.7566 43.3157C21.7571 43.3157 21.7575 43.3156 21.7579 43.3156H24.3746C24.3754 43.3156 24.3762 43.3158 24.377 43.3158C24.3778 43.3158 24.3787 43.3156 24.3794 43.3156H33.148C33.1489 43.3156 33.1497 43.3158 33.1504 43.3158C33.1512 43.3158 33.152 43.3156 33.1527 43.3156H41.0576C41.4622 43.3156 41.79 42.9877 41.79 42.5832C41.79 42.1787 41.4622 41.8508 41.0576 41.8508H36.3334C37.2081 41.2949 38.0244 40.6439 38.7583 39.9105C39.8175 38.8508 40.6872 37.6521 41.3518 36.3562C42.278 36.7335 43.2587 36.925 44.2754 36.925C48.5649 36.925 52.0547 33.4347 52.0547 29.1447C52.0547 24.8551 48.5649 21.3654 44.2754 21.3654C43.8105 21.3654 43.35 21.4075 42.8974 21.4886V21.0696C42.8974 20.1321 42.1347 19.3694 41.1973 19.3694H37.7334C37.3288 19.3694 37.0009 19.6973 37.0009 20.1018C37.0009 20.5063 37.3288 20.8342 37.7334 20.8342H41.1973C41.327 20.8342 41.4326 20.9398 41.4326 21.0696V22.3147H16.0937V21.0696C16.0937 20.9398 16.1992 20.8342 16.329 20.8342H35.0127C35.4172 20.8342 35.7451 20.5063 35.7451 20.1018C35.7451 19.6973 35.4172 19.3694 35.0127 19.3694H16.329C15.3915 19.3694 14.6288 20.1321 14.6288 21.0696V29.9153C14.6288 31.02 14.758 32.1152 15.0098 33.179C13.8177 32.8235 12.3972 33.1028 11.1011 33.9896C10.7672 34.218 10.6817 34.6738 10.9101 35.0077C11.1386 35.3415 11.5944 35.4269 11.9282 35.1986C12.7777 34.6175 13.6691 34.3893 14.4062 34.537L11.7384 38.5284C11.5136 38.8647 11.604 39.3196 11.9402 39.5443C12.0652 39.6279 12.2068 39.6679 12.3466 39.6679C12.583 39.6679 12.8151 39.5537 12.9562 39.3425L15.6247 35.3497C15.9015 35.7605 16.0531 36.2981 16.0603 36.9247C16.0603 36.925 16.0603 36.9252 16.0603 36.9255C16.0603 36.9268 16.0604 36.9282 16.0604 36.9296C16.0702 37.8971 15.7321 38.9437 15.1086 39.8765C14.7531 40.4085 14.3328 40.8646 13.8569 41.2342C13.5269 41.4926 13.1802 41.6993 12.825 41.8508H10.5112C10.4848 41.8349 10.4584 41.819 10.4321 41.8012C9.2127 40.9868 9.13555 38.8804 10.2565 37.0059C10.4641 36.6588 10.351 36.209 10.0038 36.0013C9.65684 35.7939 9.20694 35.9068 8.99932 36.2541C8.28477 37.4489 7.93575 38.7802 8.01661 40.0027C8.0625 40.6964 8.24405 41.3215 8.54288 41.8507H6.67774C6.27315 41.8507 5.94531 42.1786 5.94531 42.5831V44.335C5.94531 44.6869 6.19551 44.9889 6.54111 45.0546L17.3116 47.1V49.2676C17.3116 49.6721 17.6395 50 18.0441 50H39.4824C39.887 50 40.2148 49.6721 40.2148 49.2676V47.1002L50.9863 45.0546C51.3319 44.9889 51.5821 44.6868 51.5821 44.335V42.5831C51.5821 42.1787 51.2542 41.8508 50.8497 41.8508ZM42.8973 29.9151V26.4499H42.8974C43.3218 26.232 43.7912 26.1164 44.2754 26.1164C45.9452 26.1164 47.3037 27.4749 47.3037 29.1447C47.3037 30.8145 45.9452 32.173 44.2754 32.173C43.7432 32.173 43.231 32.0348 42.7761 31.7743C42.8559 31.1628 42.8973 30.5422 42.8973 29.9151ZM42.4979 33.272C43.0548 33.5125 43.6563 33.638 44.2754 33.638C46.7529 33.638 48.7685 31.6223 48.7685 29.1448C48.7685 26.6672 46.7529 24.6516 44.2754 24.6516C43.8027 24.6516 43.339 24.7255 42.8974 24.8678V23.0546C42.8974 23.0521 42.8978 23.0497 42.8978 23.0471C42.8978 23.0446 42.8974 23.0421 42.8974 23.0396V22.9821C43.347 22.8817 43.8086 22.8302 44.2755 22.8302C47.7572 22.8302 50.5899 25.6629 50.5899 29.1447C50.5899 32.627 47.7572 35.4601 44.2755 35.4601C43.4679 35.4601 42.6895 35.3096 41.9529 35.017C42.1723 34.4491 42.3539 33.8663 42.4979 33.272ZM16.0937 23.7795H41.4326V26.034C41.4326 26.0348 41.4326 26.0357 41.4326 26.0365V29.9152C41.4326 33.2994 40.1149 36.4813 37.7225 38.8747C36.397 40.1993 34.7736 41.2259 33.022 41.8508H24.5063C24.2701 41.7667 24.035 41.6762 23.8029 41.5773C24.3403 40.7324 24.5451 39.7924 24.3682 38.8965C24.368 38.8953 24.3679 38.8942 24.3677 38.893C24.3674 38.8917 24.3669 38.8903 24.3667 38.8889C24.1332 37.7234 23.3097 36.7644 22.0472 36.1884C20.8646 35.6489 19.4192 35.5092 17.9771 35.7956C17.8459 35.8216 17.7159 35.8514 17.587 35.8842C16.6094 34.0566 16.0937 32.0054 16.0937 29.9153V23.7795ZM16.3267 40.6904C17.0047 39.676 17.4139 38.5384 17.5053 37.436C17.751 37.3532 18.0037 37.2838 18.2626 37.2322C20.1262 36.8623 21.9231 37.423 22.6396 38.4898L17.9325 39.4255C17.5358 39.5044 17.2781 39.8898 17.3569 40.2866C17.4262 40.6351 17.7322 40.8763 18.0745 40.8763C18.1218 40.8763 18.1699 40.8718 18.2181 40.8621L22.9281 39.9258C22.8341 40.4076 22.5656 40.8906 22.1354 41.3344C22.1342 41.3355 22.1331 41.3368 22.1321 41.338C21.9527 41.522 21.7498 41.6934 21.5289 41.8506H15.3706C15.7217 41.5044 16.0419 41.1166 16.3267 40.6904ZM38.75 48.5353H18.7764V47.2189H38.75V48.5353Z" fill="#FF4B32"/>
<path d="M30.6696 14.6436C30.6563 14.652 30.6455 14.6587 30.6377 14.6637C30.645 14.659 30.6558 14.6522 30.6696 14.6436Z" fill="#FF4B32"/>
<path d="M30.6382 14.6636C30.6181 14.6762 30.6206 14.6746 30.6382 14.6636V14.6636Z" fill="#FF4B32"/>
<path d="M32.2554 7.99494C33.2418 7.05744 33.8098 5.75832 33.8098 4.36378C33.8098 2.62794 32.9311 1.03877 31.4592 0.1126C31.1169 -0.10283 30.6645 0.000100211 30.4493 0.342484C30.2338 0.684867 30.3368 1.13702 30.6792 1.35245C31.7223 2.0088 32.3451 3.13448 32.3451 4.36368C32.3451 5.59288 31.7223 6.71857 30.6792 7.37492C30.2314 7.65578 30.2314 8.33293 30.6792 8.61477C31.7223 9.27111 32.3451 10.3968 32.3451 11.626C32.3452 12.8553 31.7224 13.9811 30.6793 14.6374C30.6754 14.6398 30.673 14.6413 30.6697 14.6435C30.6728 14.6415 30.6758 14.6397 30.6793 14.6375C30.3369 14.853 30.2339 15.3051 30.4494 15.6475C30.5885 15.8688 30.8265 15.99 31.0699 15.99C31.2032 15.99 31.3381 15.9536 31.4592 15.8774C32.9311 14.9513 33.8098 13.362 33.8098 11.6263C33.8098 10.2316 33.2417 8.93244 32.2554 7.99494ZM31.0613 14.397C31.0786 14.3862 31.0807 14.3848 31.0613 14.397V14.397ZM30.9659 14.4572C30.9819 14.447 30.9967 14.4377 31.0101 14.4293C30.9973 14.4373 30.983 14.4464 30.9659 14.4572Z" fill="#FF4B32"/>
<path d="M36.6138 7.37508C36.2715 7.15965 35.8191 7.26248 35.6038 7.60496C35.3884 7.94724 35.4913 8.39949 35.8337 8.61492C36.8768 9.27127 37.4995 10.3971 37.4995 11.6263C37.4996 12.8553 36.8769 13.981 35.8338 14.6374C35.4914 14.8528 35.3885 15.305 35.6039 15.6474C35.7431 15.8686 35.9811 15.9898 36.2244 15.9898C36.3577 15.9898 36.4927 15.9534 36.6138 15.8772C38.0856 14.9512 38.9643 13.3619 38.9643 11.6262C38.9643 9.89041 38.0856 8.30115 36.6138 7.37508Z" fill="#FF4B32"/>
<path d="M25.8828 7.37505C25.5405 7.15962 25.0881 7.26255 24.8729 7.60494C24.6574 7.94732 24.7604 8.39947 25.1027 8.6149C26.1459 9.27125 26.7687 10.3969 26.7687 11.6261C26.7688 12.8553 26.146 13.9811 25.1028 14.6375C24.7605 14.8529 24.6575 15.305 24.873 15.6474C25.0121 15.8687 25.2501 15.9899 25.4935 15.9899C25.6268 15.9899 25.7617 15.9535 25.8828 15.8773C27.3547 14.9512 28.2334 13.362 28.2334 11.6262C28.2334 9.89039 27.3547 8.30123 25.8828 7.37505Z" fill="#FF4B32"/>
</g>
</g>
<defs>
<filter id="filter0_d_1_617" x="0" y="0" width="141.216" height="58" filterUnits="userSpaceOnUse" color-interpolation-filters="sRGB">
<feFlood flood-opacity="0" result="BackgroundImageFix"/>
<feColorMatrix in="SourceAlpha" type="matrix" values="0 0 0 0 0 0 0 0 0 0 0 0 0 0 0 0 0 0 127 0" result="hardAlpha"/>
<feOffset dy="4"/>
<feGaussianBlur stdDeviation="2"/>
<feComposite in2="hardAlpha" operator="out"/>
<feColorMatrix type="matrix" values="0 0 0 0 0 0 0 0 0 0 0 0 0 0 0 0 0 0 0.25 0"/>
<feBlend mode="normal" in2="BackgroundImageFix" result="effect1_dropShadow_1_617"/>
<feBlend mode="normal" in="SourceGraphic" in2="effect1_dropShadow_1_617" result="shape"/>
</filter>
<clipPath id="clip0_1_617">
<rect width="50" height="50" fill="white" transform="translate(4)"/>
</clipPath>
</defs>
</svg>
